<?xml version="1.0" encoding="UTF-8"?>
<svg id="_圖層_2" data-name="圖層 2" xmlns="http://www.w3.org/2000/svg" viewBox="0 0 206.34 32.99">
  <defs>
    <style>
      .cls-1 {
        fill: #00a040;
        fill-rule: evenodd;
        stroke: #00a040;
        stroke-miterlimit: 22.93;
        stroke-width: .22px;
      }

      .cls-2 {
        fill: #231815;
      }
    </style>
  </defs>
  <g id="_h_1" data-name="ϼh 1">
    <path class="cls-1" d="M3.27,9.64s-.82-.09-1.59,1.29C.12,13.69-.26,16.84.45,19.93c1.73,7.52,8.94,12.23,16.28,12.84,1.4.12,4.29.22,6.4-.07,2.11-.29,4.75-.71,6.62-1.42,1.88-.7,2.36-.84,3.73-1.51,1.37-.67,2.36-1.26,3.2-1.9.84-.63,2.17-1.83,2.77-2.49,2.54-2.78,4.23-6.76,3.47-10.57-.31-1.58-.84-3.9-2.06-5.07-.3-.29-.52-.31-.69-.2-.17.11-.32.51-.34.76-.13,1.62.74,3.22,1.04,4.78.68,3.57-.65,7.32-3.39,9.73-1.43,1.26-3.07,2.36-4.79,3.2-.76.37-1.89.89-2.76,1.21-3.89,1.44-8.46,2.2-12.62,1.64-2.84-.38-6.02-.89-8.5-2.43-1.71-1.06-3.55-2.41-4.7-4.1-1.28-1.88-2.44-4.77-2.39-7.09.03-1.1.07-2.58.26-3.34.19-.76.74-2.08,1.01-2.63.27-.55.66-1.33.28-1.63Z"/>
    <path class="cls-1" d="M37.12,6.15c-.47-.74-1.08-1.34-1.77-1.88-.25-.2-.85-.6-1.39-.89-2.24-1.19-4.69-2.01-7.14-2.64-1.53-.39-3.26-.64-4.85-.64-4.06,0-7.65.93-11.27,2.86-1.51.8-2.99,1.75-4.21,2.94-1.76,1.72-2.16,3.77-1.34,6.1,1.12,1.92.53-1.15.5-1.4-.05-.34-.03-1.18.07-1.53.1-.35.49-1.01.73-1.35.54-.78,1.41-1.5,2.14-2.08.3-.24,1.62-1.18,2.01-1.42.39-.23,1.38-.82,1.83-1.04.45-.21,1.28-.55,1.79-.74,1.89-.71,3.8-.98,5.79-1.11.4-.03,1.07-.03,1.53.09s.38.8.34.96c-.25.9-.96,1.98-1.43,2.78-.19.32-.56,1.14-.74,1.55-.18.41-.58,1.46-.72,1.78-.45,1.05-.82,2.16-1.21,3.23-.18.5-.34,1.01-.49,1.51-.16.5-.35,1.1-.45,1.44-.29.97-.64,1.95-.97,2.91-.2.58-.32,1.04-.51,1.61-.19.58-.38,1.17-.54,1.59-.15.42-.43,1.09-.62,1.48-.19.39-.61,1.16-.82,1.46-.21.3-.58.87-.95,1.28-.36.41-.86.94-1.28,1.31-.42.36-1.05.98-1.17,1.15-.12.18.04.43.16.47.12.04.58-.05.87-.21.29-.17,1.25-.78,1.54-.99,1.03-.74,1.85-1.75,2.61-2.76.3-.39.8-1.24,1-1.59.21-.36.67-1.22.9-1.73.23-.5,1.02-2.39,1.02-2.39,3.16-.07,6.21-.03,9.33-.67.5-.1,1.45-.34,2.05-.52,1.35-.39,2.67-.97,3.86-1.7,1.29-.79,2.55-1.73,3.5-2.92,1.41-1.77,1.52-4.42.31-6.32ZM33.09,10.86c-.12.23-.44.8-.69,1.13-1.42,1.81-3.49,3.04-5.7,3.64-1.63.45-3.16.8-4.85.94-.58.05-2.7.19-2.7.19,0,0-.59.08-.69-.12,0,0-.23-.25-.05-.84.19-.58,1.06-2.71,1.06-2.71,0,0,1.34-3.42,1.56-3.93.22-.51.62-1.4,1.06-2.3.44-.89,1.1-2.14,1.44-2.79.61-1.16,1.51-2.61,3.02-2.25.67.16,1.63.45,2.04.65,1.13.55,2.42,1.18,3.28,2.12.5.54,1.03,1.16,1.23,1.63.6,1.42.71,3.23-.01,4.64Z"/>
    <g>
      <path class="cls-2" d="M182.39,15.54v-1.51c.09-.09.12-.2.11-.32-.02-.17-.06-.33-.11-.48v-2.06c.36.4.72.88,1.06,1.45.35.57.57,1.06.65,1.46.06.32.01.57-.14.76-.28.32-.62.52-1.02.6-.15.05-.33.08-.55.11h0ZM182.39,7.53v-1.51c.04.16.16.34.37.52.14.12.32.25.53.39,1.6.98,3.22,1.46,4.84,1.42.47-.01.61.13.42.42-.26.4-.77.73-1.55.98-.8.3-1.55.17-2.25-.39-.91-.66-1.7-1.28-2.36-1.84ZM182.39,6.02v1.51c-.4-.35-.76-.68-1.07-.99-.27-.26-.46-.55-.58-.88-.13-.34-.1-.57.09-.68.21-.1.46-.1.76,0,.42.17.69.51.81,1.04h0ZM182.39,11.18v2.06c-.16-.53-.46-.97-.89-1.33-.31-.32-.48-.59-.53-.81-.01-.2.02-.36.1-.47.07-.11.2-.14.39-.11.23.05.48.2.74.46.07.06.13.13.19.2h0ZM182.39,14.04c-.09.1-.24.17-.46.22-.25.08-.84.15-1.78.21-.85.05-1.6.02-2.25-.09-.46-.08-.73-.23-.81-.44-.07-.19-.05-.41.05-.68.26-.42.94-.98,2.04-1.65.44-.4.7-.79.79-1.18.04-.31-.03-.58-.23-.79-.19-.15-.41-.2-.65-.14-.22.04-.42.24-.6.58-.25.5-.47.9-.68,1.18-.33.39-.58.66-.77.83l-.09.08v3.39c.11.04.23.07.35.1.18.03.96.03,2.35-.02.21-.04.8-.05,1.76-.05.37,0,.7,0,.97-.04v-1.51h0ZM176.96,7.82v-1.83c.01-.08.02-.16.02-.24,0-.27.04-.47.12-.61.08-.1.22-.16.41-.18.17,0,.32.06.44.18.15.13.23.32.23.58-.01.28-.17.65-.46,1.11-.21.37-.46.7-.75,1ZM176.96,5.99v1.83c-.48.49-1.06.89-1.76,1.2-1.04.42-1.69.58-1.93.47-.3-.09-.56-.25-.77-.46-.28-.29-.4-.55-.37-.77.03-.18.13-.3.28-.37.16-.07.45-.08.85-.04.41.07.83.06,1.26-.02.87-.19,1.58-.58,2.14-1.19.16-.22.26-.44.3-.66h0ZM176.96,12.16v3.39c-.55-.19-.9-.45-1.06-.78-.19-.43-.2-.83-.05-1.2.15-.37.52-.84,1.11-1.41h0ZM161.86,14.8v-.82c.21-.03.41-.06.62-.08.39-.06.58,0,.6.19.04.13-.14.27-.53.42-.25.1-.48.2-.69.29h0ZM161.86,12.3c.16-.03.34-.07.53-.11.6.28,1.3,1,2.11,2.14.54.77,1.04,1.21,1.51,1.3.58.07,1.25-.05,2.04-.35.04-.04.07-.05.1-.05.47-.28.36-.53-.31-.74-1.52-.36-2.9-1.27-4.13-2.72.35-.21.68-.35.97-.42.4-.12.6-.34.6-.67-.04-.33-.16-.61-.35-.84-.26-.26-.49-.25-.68.04-.59.65-1.38,1.19-2.37,1.61v.82h0ZM161.86,9.47v-.86c.93-.05,1.47-.1,1.6-.17.1-.13.18-.46.23-.98-.06-.05-.23-.07-.51-.07-.49-.02-.93-.04-1.32-.05v-.85h.04c1.03.01,1.64,0,1.83-.04.02-.01.04-.01.05,0,.05-.57.02-.93-.09-1.07-.09-.14-.41-.22-.95-.23-.33,0-.62,0-.88.02v-.87h.16c1.98.02,3.08.19,3.31.52.14.22.12.53-.07.93-.37.81-.55,1.6-.55,2.37-.04.55-.14.9-.32,1.05-.29.27-.72.38-1.28.34-.31-.05-.62-.07-.95-.05h-.3ZM161.86,4.3v.87c-.89.04-1.39.14-1.51.3-.15.2-.23.52-.23.95.32.05.9.07,1.74.07v.85c-.76-.01-1.36,0-1.77.06h-.05c.01.68.05,1.05.12,1.13.1.09.31.13.63.12.4-.02.76-.03,1.07-.05v.86c-1.13.04-1.75.14-1.85.31-.07.09-.11.34-.11.74.01,1.18,0,2.24-.05,3.16-.01.34.02.53.11.58.04.01.13.01.25,0,.57-.12,1.12-.21,1.65-.29v.82c-.23.1-.44.2-.63.29-.98.53-1.95,1.06-2.9,1.58-.2.02-.38-.03-.54-.14v-1.2c.17-.26.34-.43.52-.51.25-.28.42-.95.53-2,.19-3.31.19-5.8.02-7.45-.04-.35.03-.62.21-.81.29-.34.9-.43,1.83-.28.08,0,.4.02.97.04h0ZM161.86,11.48c-.26.11-.53.21-.81.3-.28,0-.4.12-.37.37.01.15.2.22.55.21.18,0,.39-.02.63-.06v-.82h0ZM157.79,10.65c.21-.26.3-.55.26-.86-.03-.26-.12-.52-.26-.78v1.64h0ZM157.79,6.12c.32-.42.32-.8,0-1.14v1.14ZM157.79,4.98v1.14c-.2.26-.52.54-.96.83-.29.22-.33.48-.12.77.5.44.86.87,1.08,1.29v1.64c-.14.18-.34.34-.6.5-.45.45-1.02.73-1.7.85v-1.08c.31-.19.58-.44.81-.75.34-.33.49-.57.44-.72-.1-.43-.39-.81-.88-1.14-.05-.05-.18-.03-.37.06v-1.15c.64-.53.96-1.11.96-1.72-.06-.11-.15-.16-.26-.18-.2-.1-.43-.16-.7-.19v-.7c.34.06.68.09,1.03.08.42.02.76.11,1.02.26.1.07.18.14.25.21h0ZM157.79,15.32v1.2s-.06-.05-.09-.08c-.19-.25-.22-.5-.1-.76.06-.14.13-.26.2-.37ZM155.48,4.43v.7c-.31-.03-.67-.02-1.08.04-.1.26-.16.55-.16.88-.02,1.16-.03,2.92-.02,5.29.02-.02.08-.04.16-.05.41-.05.77-.18,1.09-.37v1.08c-.23.04-.47.06-.72.06-.22-.02-.39-.05-.51-.09,0,.97.02,2.04.03,3.2,0,.49-.08.88-.23,1.18-.11.19-.23.28-.39.28-.19,0-.32-.11-.41-.32-.21-.57-.29-1.27-.25-2.09.14-5.2.14-8.14,0-8.81-.28-.15-.43-.26-.44-.33-.05-.18.02-.37.19-.6.15-.18.37-.29.67-.33.46-.07.83-.07,1.11.01.31.11.62.2.93.26h0ZM155.48,7.21c-.06.05-.12.09-.18.14-.46.21-.62.53-.49.97.08.22.29.25.62.07l.05-.03v-1.15h0ZM141.67,13.51v-1.02c1.02-.01,1.72-.02,2.1-.04.01-.39.02-.77.04-1.16-.29-.04-.92-.06-1.88-.05h-.25s0-.97,0-.97h.25c.94-.01,1.57-.02,1.9-.04-.05-.4-.13-.68-.25-.83-.06-.06-.15-.1-.26-.14-.29-.04-.84-.06-1.64-.06v-1h.47c1.28.02,2.02.02,2.23.02.35,0,.62.11.81.33.14.14.23.31.26.49.01.15-.04.32-.16.51-.19.26-.28.6-.28,1.02-.13,2.12-.07,3.6.17,4.45.13.5.12.89-.02,1.18-.14.26-.33.41-.58.46-.14,0-.28-.07-.42-.19-.26-.25-.39-1.21-.39-2.9-.32-.06-1.02-.08-2.1-.07h0ZM141.67,6.68v-1c1.69,0,3.52.06,5.51.17.42.02.66.11.7.26.05.13-.14.44-.58.95-.53.53-1.16.67-1.9.42-.77-.35-1.89-.6-3.34-.76l-.4-.04ZM141.67,5.67v1c-1.05-.11-1.74-.14-2.06-.1-.13.39-.37.91-.74,1.58.07-.03.14-.05.23-.05.1,0,.3.02.58.05.21.02.87.04,1.99.05v1h-.45c-.77,0-1.2.06-1.28.16-.08.13-.12.41-.12.84.32.03.94.05,1.85.05v.97c-.95.01-1.56.04-1.84.08h-.09c-.06.36-.13.74-.21,1.13.45.04,1.15.05,2.11.04h.03v1.02h-.03c-1.56.02-2.38.06-2.46.11-.02.02-.04.05-.04.09-.82,1.92-1.63,2.95-2.44,3.09-.2.02-.43-.09-.69-.33-.32-.28-.23-.63.26-1.05.81-.81,1.46-1.71,1.95-2.69.31-.91.41-1.99.3-3.22-.06-.34-.07-.6-.03-.79-.83,1.11-1.92,2.01-3.25,2.69-1.69.84-2.76,1.12-3.22.84-.21-.15-.32-.32-.33-.51-.02-.5.6-.9,1.86-1.18,2.56-.9,4.15-2.2,4.78-3.89-1.68.07-3.13.34-4.36.79-.72.25-1.17.31-1.35.19-.21-.1-.32-.25-.34-.48,0-.3.16-.6.49-.89.31-.29.69-.46,1.14-.5,1.15-.07,2.71-.1,4.68-.1.06-.42.08-.79.07-1.11-.02-.37.02-.62.14-.74.2-.13.44-.18.72-.14.2.02.36.12.47.3.1.2.1.44.02.74-.09.28-.16.6-.21.95.6,0,1.21-.01,1.85,0h0ZM123.28,15.14v-1.92c.57-.72.89-1.39.96-2.02.04-.29-.02-.52-.21-.67-.17-.13-.42-.22-.75-.29v-.91c.21,0,.41-.01.58-.05.46-.13.79-.12,1.02.04.36.23.56.44.6.61.2.6.3.91.3.95-.01.13-.05.23-.12.31-.12.14-.23.35-.33.63-.76,1.51-1.44,2.61-2.03,3.31h0ZM123.28,6.33v-1.11c.63.51,1.56,1.1,2.79,1.76,1.19.58,1.8.95,1.81,1.09.01.19-.11.34-.37.46-.04,0-.07.02-.09.03-1.39.56-2.53.1-3.41-1.37-.18-.32-.43-.6-.73-.86ZM123.28,5.22v1.11c-.44-.38-1.02-.69-1.73-.95-.43-.15-.67-.29-.72-.4-.09-.15-.03-.32.19-.51.14-.12.37-.18.71-.19.33-.01.69.16,1.09.53.13.13.28.27.46.42h0ZM123.28,9.33v.91c-.29-.05-.64-.08-1.06-.08-.01.05-.02.09-.04.12-.13.13-.28.37-.46.74-2.15,3.31-3.68,5-4.59,5.04-.2.02-.42-.04-.67-.19-.13-.11-.22-.22-.27-.31v-.36c.12-.19.35-.39.69-.61.32-.17.83-.57,1.55-1.21.47-.45,1-1.03,1.6-1.74.62-.76.97-1.27,1.06-1.53,0-.05,0-.08.02-.09-.23-.07-.66-.07-1.3,0-.27.03-.52,0-.74-.07-.31-.17-.37-.36-.2-.58.15-.21.42-.41.81-.58.31-.1.77-.05,1.41.16.88.25,1.61.38,2.18.38h0ZM123.28,13.22c-.29.36-.64.74-1.06,1.12-.64.46-.91.9-.81,1.33.05.19.14.3.28.34.19.04.4.02.65-.07.28-.13.6-.4.94-.8v-1.92h0ZM116.21,4.5v-.63s.03.05.04.09c.04.15.02.33-.04.54h0ZM119.88,6.84c.37-.21.5-.47.41-.79-.12-.31-.3-.56-.54-.72-.32-.19-.53-.12-.65.2-.25.67-1.06,1.51-2.43,2.55-.31.08-.43.25-.35.49.07.15.26.18.58.07.82-.21,1.65-.68,2.5-1.41.21-.19.37-.32.49-.39ZM116.21,3.87v.63c-.16.54-.63,1.29-1.42,2.25.26.33.37.76.34,1.28-.13,2.19-.16,4.41-.09,6.66.07.81-.04,1.36-.33,1.65-.2.23-.46.19-.79-.14-.15-.2-.2-.6-.16-1.21.08-3.23.09-5.62.02-7.17,0-.02-.02-.04-.02-.05-.48.4-.83.65-1.06.77-.42.15-.78.14-1.07-.05-.27-.17-.41-.39-.41-.67.02-.34.18-.55.47-.63.8-.31,1.55-.76,2.27-1.33.71-.62,1.15-1.11,1.3-1.46.18-.43.35-.67.53-.72.19-.03.33.04.42.2h0ZM116.21,15.21s-.04.06-.05.09c-.02.08,0,.17.05.27v-.36h0ZM102.27,13.95v-2.36c.14.1.28.21.42.32.4-.61.55-1.17.44-1.67-.06-.25-.06-.45-.01-.6.04-.12.16-.2.35-.25.15-.05.3-.02.46.09.16.1.27.27.32.49.1.61-.15,1.45-.76,2.51,1.76,1.21,3.02,2.08,3.8,2.62.26.2.38.35.37.46-.06.16-.25.32-.58.47-.52.18-1.01.24-1.48.19-.48-.07-.92-.48-1.32-1.23-.33-.61-.77-1.19-1.34-1.72-.01,0-.02,0-.02.02-.2.23-.42.45-.65.66h0ZM102.27,8.67v-1.02h1.44c.09-1.22.01-1.92-.25-2.11-.04-.04-.09-.09-.18-.12-.33-.08-.66-.14-.98-.17h-.04v-1.11c1.44-.03,2.28.09,2.51.36.22.25.29.67.21,1.28-.1.36-.18.99-.26,1.88h.9c.5,0,.73.09.68.28-.04.21-.25.45-.65.71-.25.14-.58.17-1.02.09-.88-.08-1.67-.1-2.37-.05ZM102.27,4.13v1.11c-.8-.02-1.25.02-1.35.12-.12.22-.15.97-.1,2.25.18,0,.35,0,.53.02.13.01.3.02.53.02h.4v1.02c-.69.05-1.3.16-1.81.33-.71.19-1.15.19-1.3,0-.15-.22-.16-.46-.02-.72.14-.23.37-.41.69-.52-.01-.08-.02-.15-.02-.2-.07-1.06-.16-1.73-.26-1.99-.06-.19-.09-.34-.09-.46.01-.27.11-.49.3-.67.23-.15.52-.23.88-.25.61-.04,1.16-.07,1.64-.07h0ZM102.27,11.59v2.36c-.26.24-.54.46-.84.66-1.14.73-1.88,1.05-2.23.98-.31-.05-.58-.15-.81-.3-.32-.22-.48-.44-.49-.67.01-.37.34-.57.99-.58,1.04-.02,2.13-.52,3.27-1.48,0-.01,0-.02.02-.02-.67-.63-1.24-.99-1.7-1.07-.55-.1-.91-.32-1.09-.63-.14-.23-.14-.46,0-.69.09-.16.27-.24.52-.23.25.01.55.18.92.49.44.36.93.75,1.46,1.16h0ZM95.04,10.77v-1.06c.62-.01.98-.02,1.1-.04.01-.54.02-1.11.04-1.7h-.16c-.14-.04-.46-.05-.97-.04h0s0-1.06,0-1.06c.34,0,.71-.03,1.1-.08.04,0,.06,0,.07,0,.04-1.15.01-1.76-.07-1.84-.08-.08-.38-.17-.91-.28l-.19.05v-.93c.16,0,.34,0,.54,0,1.07-.11,1.72-.03,1.97.21.25.25.29.62.14,1.12-.25.76-.39,1.91-.42,3.46-.04,2.44.07,4.56.35,6.36.09.66-.02,1.06-.35,1.21-.27.11-.51.07-.74-.12-.21-.22-.33-.64-.37-1.25-.03-.71-.04-2.02-.03-3.94-.13-.02-.25-.04-.35-.04-.27-.02-.51-.03-.73-.04ZM95.04,3.78v.93c-.63.17-.96.3-.99.39-.06.14-.09.7-.09,1.69.33.06.69.09,1.08.08v1.06c-.38.02-.75.04-1.1.04-.01.61-.02,1.18-.04,1.7.19.02.56.04,1.12.04h0v1.06c-.62-.02-1.02,0-1.2.1-.13,1.96-.58,3.6-1.35,4.94-.43.5-.82.76-1.14.77-.32-.02-.52-.2-.6-.53-.04-.26.14-.64.52-1.14.27-.51.5-.97.69-1.35.61-1.43.84-4.24.68-8.44-.03-.42.02-.76.16-1.02.14-.22.29-.38.44-.46.2-.07.55-.05,1.05.07.12.03.37.06.75.06h0ZM81.22,13.9v-.93l.08.04c.15-.13.39-.28.72-.46.75-.56,1.2-.91,1.36-1.05.28-.21.55-.14.81.21.22.37.28.69.16.93-.1.27-.36.41-.76.42-.42.05-.97.16-1.63.34,1.71.88,2.83,1.39,3.37,1.53.46.12.57.32.35.61-.04.02-.05.04-.05.05-1.01.9-1.74,1.06-2.2.46-.87-1.02-1.6-1.73-2.21-2.15h0ZM81.22,11.25c.22.02.47.06.75.11.49.12.83.03,1-.26.14-.21.27-.72.39-1.53.56.07,1.15.24,1.76.51.36.15.68.13.95-.07.32-.26.6-.58.86-.97.18-.28.09-.42-.26-.42-.36.01-.97,0-1.81-.05-.33-.01-.78-.03-1.35-.05.03-.32.09-.54.16-.67.14-.29.07-.57-.21-.84-.26-.22-1-.34-2.22-.37v.83c.27.03.52.09.75.21.12.05.18.13.19.26.01.18.02.35.04.51-.27-.02-.59-.03-.98-.04v1.01c.33,0,.66.02.98.05v.25c-.04.33-.18.51-.44.55-.18,0-.36.01-.53.02v.98h0ZM81.22,5.58v-1.05c1.69-.02,2.62.05,2.78.19.25.21.26.46.05.76-.14.16-.43.22-.86.18-.37-.05-1.03-.07-1.98-.07ZM81.22,4.52v1.05h-.13c-.85,0-2.16.03-3.93.09v-1.12c.4,0,.84,0,1.31,0-.12-.46-.12-.74-.02-.84.15-.16.35-.24.6-.23.32.01.53.09.65.25.09.14.11.3.04.47-.04.13-.05.25-.05.35.57-.02,1.08-.03,1.54-.03h0ZM81.22,6.64v.83c-.27-.02-.56,0-.87.05-.04.27-.05.56-.05.88.34,0,.65,0,.92,0v1.01c-.31,0-.63-.01-.96,0,0,.29-.02.61-.02.93.31-.03.64-.05.98-.07v.98c-.44-.04-.77-.03-.98.04v.93c.22.25.55.5.98.75v.93c-.38-.26-.7-.4-.98-.43,0,.81.02,1.41.03,1.79.07.77-.03,1.3-.31,1.58-.21.23-.46.19-.76-.12-.16-.18-.22-.57-.18-1.18.05-1.38.07-2.77.07-4.18-.78.05-1.42.12-1.95.23v-1.21c.1,0,.2,0,.31,0h1.62v-.95c-.68.01-1.33.06-1.93.13v-1.2c.64,0,1.28,0,1.91.02-.01-.32-.02-.58-.02-.79-.69.04-1.32.1-1.89.21v-1.2c.19-.03.39-.02.6,0,.17.01.6.02,1.28.04.02-.28.1-.46.25-.55.32-.27.58-.28.79-.02.13.15.22.34.26.56h.49c.14,0,.27,0,.4,0h0ZM77.16,15.68c.26-.12.55-.27.87-.43.29-.15.41-.32.35-.49-.04-.15-.25-.21-.6-.18-.22.03-.43.06-.63.09v1.01h0ZM77.16,13.73c.41-.07.76-.18,1.07-.32.22-.08.32-.19.3-.33-.01-.15-.17-.22-.47-.21-.31-.06-.61-.15-.89-.28v1.14ZM77.16,4.55v1.12c-.63.02-1.32.04-2.06.07-.32.07-.45.3-.4.7,0,1.72-.06,3.16-.18,4.33-.2,1.84-.74,3.36-1.63,4.55-.62.77-1.16,1.16-1.62,1.16-.21-.02-.38-.13-.52-.32-.26-.4-.11-.81.46-1.23.95-1.01,1.62-1.93,2-2.78.26-.91.39-2.57.39-4.96-.18-1.22-.23-1.9-.16-2.04.1-.21.28-.37.53-.5.34-.14.69-.21,1.05-.21.54.05,1.26.08,2.15.1h0ZM77.16,6.59c-.29.04-.56.14-.83.31-.26.19-.34.39-.26.62.12.29.47.39,1.07.28h.02v-1.2h0ZM77.16,8.36h0c-1.02.04-1.7.18-2.06.44-.32.26-.4.52-.26.79.15.22.49.29,1.02.2.41-.09.85-.16,1.3-.22v-1.2h0ZM77.16,10.38c-.48.03-.83.14-1.06.34-.19.19-.22.4-.11.63.19.28.54.36,1.07.25l.09-.02v-1.21h0ZM77.16,12.59c-.13-.06-.26-.13-.39-.21-.49-.15-.79-.08-.89.23-.12.28-.11.53.02.74.12.22.47.36,1.04.42.08-.01.16-.02.23-.04v-1.14h0ZM77.16,14.66c-.45.06-.86.09-1.22.11-.35.01-.58.09-.68.23-.11.12-.14.32-.09.62.08.43.23.67.46.7.13,0,.65-.21,1.53-.64v-1.01h0ZM62.14,15.73v-1.08c.33-.02.68-.03,1.05-.04.21-.01.35-.05.42-.12.06-.07.09-.16.09-.28.07-.92.1-1.4.1-1.41-.1-.15-.39-.23-.86-.25-.28,0-.55-.01-.81,0v-.87c1.27-.06,2.14,0,2.6.18.21.11.36.26.44.47.07.18.01.53-.17,1.07-.13.49-.22.99-.26,1.49-.06.43-.16.69-.32.77-.35.19-.67.26-.95.21-.46-.1-.9-.15-1.33-.15h0ZM62.14,8.28v-1.11c1.02.05,2.51.21,4.46.49.3.03.38.17.23.42-.58.96-1.16,1.3-1.76,1.02-.99-.46-1.96-.73-2.93-.82ZM55.29,4.71c.16-.29.22-.51.19-.66-.03-.15-.09-.25-.19-.3v.96h0ZM62.14,7.16v1.11c-.41-.04-.82-.04-1.23,0-.6,1.75-1.58,3.14-2.95,4.2-1.25.85-2.08,1.19-2.48,1.02-.07-.04-.14-.08-.19-.13v-.91c.21-.25.58-.43,1.12-.56,1.56-.75,2.66-1.95,3.29-3.61-.05,0-.09-.02-.12-.02-1.12.01-2.13.23-3.01.65-.49.24-.88.21-1.16-.09-.21-.3-.14-.67.21-1.11.21-.23.46-.35.76-.33.29.01.92-.02,1.88-.1.58-.07,1.16-.11,1.74-.11.13-.7.17-1.29.14-1.76-.02-.37.02-.62.14-.74.2-.13.44-.17.72-.14.2.02.36.12.47.3.09.2.1.44.02.74-.1.28-.2.81-.32,1.58.25-.02.58-.01.97,0h0ZM62.14,11.67c-.2,0-.41.02-.64.04-.05,0-.08,0-.11.02-.52.01-1.04,0-1.54-.02-.36-.01-.62.1-.76.33-.07.14,0,.68.21,1.62.11.53.16,1.03.16,1.5-.01.36.1.62.33.77.15.12.45.12.9,0,.47-.13.95-.2,1.44-.2v-1.08c-.27.02-.53.04-.77.06-.36.04-.59.01-.67-.07-.14-.15-.23-.44-.28-.86-.08-.6-.09-.92-.02-.97.15-.14.44-.22.86-.23.28-.03.57-.04.88-.04v-.87ZM53.19,7.09c0,4.32-.02,6.98-.05,7.98-.04.61,0,1.01.16,1.22.33.33.59.37.79.14.29-.29.4-.84.33-1.65-.07-2.36-.02-4.79.16-7.3.04-.57-.09-1.01-.37-1.32.51-.6.87-1.08,1.07-1.45v-.96c-.06-.03-.14-.04-.23-.03-.19.05-.39.27-.62.67-.15.29-.59.68-1.32,1.18-.7.43-1.43.74-2.18.93-.31.07-.5.26-.55.58-.03.28.08.53.34.74.28.22.63.27,1.05.14.28-.08.75-.37,1.41-.86h0ZM55.29,12.45v.91c-.09-.08-.15-.16-.18-.26-.01-.05-.02-.09-.02-.12,0-.2.07-.37.2-.53Z"/>
      <path class="cls-2" d="M197.73,7.96c1.32-.04,2.37-.02,3.17.07.47.08.83.05,1.07-.1.4-.26.62-.5.67-.72.05-.19-.19-.29-.72-.3-1.78,0-3.18,0-4.19,0v1.05h0ZM197.73,13.12v-1.06c.68-.02,1.17-.03,1.48-.03.28,0,.46-.04.54-.11.07-.08.1-.32.09-.72-.01-.3-.04-.48-.09-.53-.14-.1-.82-.14-2.02-.11v-.92c1.83-.02,2.88.07,3.13.28.27.23.38.56.33,1.02-.06.21-.1.45-.14.7.01.63-.11,1.05-.37,1.27-.31.25-.73.33-1.27.25-.19-.04-.71-.05-1.56-.04h-.13ZM197.73,5.36v-1.66c.21,0,.43.02.65.07,1.03.21,2.71.29,5.05.25,1.48-.06,2.34.02,2.58.23.12.1.21.25.28.44.06.19.05.42-.02.7-.16.56-.24,2.26-.23,5.08.01,1.24-.08,2.09-.26,2.55-.55,1.25-1.87,2.34-3.95,3.27-.77.41-1.38.45-1.81.12-.3-.21-.44-.48-.4-.81.03-.31.28-.51.74-.62,1.4-.41,2.46-.88,3.2-1.42.81-.63,1.23-1.6,1.27-2.9.05-1.28.09-2.61.12-3.99.01-.6-.17-1.06-.53-1.39-.34-.29-2.4-.28-6.17.05-.19.02-.36.03-.52.03ZM195.74,6.9c-.43-.05-.9-.03-1.39.05-.42.12-.73.32-.91.61-.15.28-.15.54.02.77.18.19.63.19,1.37,0,.61-.19,1.54-.31,2.8-.37h.12v-1.06c-1.27,0-1.93,0-2-.01h0ZM197.73,3.7v1.66c-.7.02-1.13-.09-1.31-.33-.28-.35-.23-.67.16-.95.35-.24.74-.37,1.16-.38h0ZM197.73,9.64v.92h-.28c-1.09.03-1.7.1-1.81.2-.04.04-.03.31.04.81.04.31.08.46.12.47.08.06.25.08.51.07.54-.03,1.01-.05,1.42-.06v1.06c-.69,0-1.22.06-1.6.16-.57.12-.95.12-1.14,0-.29-.2-.44-.55-.44-1.06-.01-.02-.01-.04,0-.04-.15-1.31-.1-2.07.14-2.28.14-.13.37-.2.68-.2.89-.04,1.68-.06,2.35-.07Z"/>
    </g>
    <g>
      <path class="cls-2" d="M154.52,27.71v-.38s.09,0,.14,0c.45,0,.85-.1,1.19-.31.34-.21.61-.52.8-.93.19-.41.29-.92.29-1.51s-.11-1.15-.32-1.59c-.22-.44-.51-.77-.89-.99-.35-.21-.75-.32-1.21-.33v-.38h.1c1.01,0,1.81.27,2.38.82.58.55.86,1.27.86,2.18,0,.98-.33,1.79-1,2.45-.63.62-1.41.94-2.35.98h0ZM159.82,21.65v-.28c.6.02,1.04.03,1.31.03.29,0,.71-.01,1.27-.03v.28h-.32c-.27,0-.44.05-.5.16-.06.1-.08.58-.08,1.43v1.72c0,.63.03,1.07.1,1.31.07.25.25.45.53.62.29.17.67.25,1.15.25s.91-.09,1.25-.27c.23-.13.41-.32.51-.59.11-.26.16-.77.16-1.51v-1.66c0-.77-.04-1.21-.1-1.32-.07-.11-.26-.16-.57-.16h-.23v-.28c.61.02.99.03,1.16.03.27,0,.6-.01.99-.03v.28h-.3c-.23,0-.38.06-.45.19-.07.12-.1.56-.1,1.31v1.65c0,.75-.04,1.26-.11,1.52-.08.26-.21.5-.41.71-.2.21-.46.38-.79.5-.33.12-.72.18-1.16.18s-.86-.06-1.21-.17c-.35-.11-.6-.24-.78-.41-.17-.16-.3-.36-.38-.59-.08-.23-.12-.63-.12-1.19v-.84s0-1.34,0-1.34c0-.83-.02-1.29-.07-1.39-.05-.1-.2-.15-.46-.15h-.31ZM170.19,21.85c-.02.42-.03.87-.03,1.35v2.51c0,.88.03,1.38.08,1.48.05.11.22.16.52.16h.3v.28c-.52-.02-.93-.03-1.23-.03-.26,0-.73.01-1.4.03v-.28h.4c.18,0,.3-.02.36-.07.05-.05.09-.14.1-.28.01-.14.03-.57.05-1.28v-3.26c-.02-.38-.06-.61-.13-.69-.08-.09-.26-.13-.55-.13h-.22v-.28c.37.01.83.02,1.39.02.33,0,.7,0,1.1-.03.27-.01.47-.02.61-.02.71,0,1.23.13,1.55.39.32.26.48.61.48,1.05,0,.32-.09.63-.28.92-.18.29-.45.53-.78.71-.34.18-.7.27-1.08.27-.18,0-.4-.03-.66-.08l-.09-.33c.26.07.47.1.65.1.4,0,.72-.12.96-.37.24-.24.36-.58.36-1s-.13-.73-.38-.96c-.25-.23-.63-.35-1.13-.35-.29,0-.6.06-.93.16h0ZM176.74,28.58c.18-.16.32-.31.43-.45.11-.14.19-.28.25-.43.05-.14.08-.29.08-.44,0-.14-.02-.25-.07-.34-.04-.09-.1-.15-.16-.19-.07-.04-.14-.06-.21-.06-.08,0-.14.02-.19.04-.05.03-.08.06-.11.1-.02.04-.04.08-.05.12,0,.04-.01.07-.01.09,0,.08.01.14.04.2.03.06.08.1.15.14.08.04.14.09.18.14.04.05.06.1.06.16,0,.06-.01.11-.05.18-.04.06-.1.14-.18.23-.08.1-.21.22-.36.37l.22.13h0ZM182.97,27.35h.28c.27,0,.44-.07.49-.2.05-.13.08-.76.08-1.89v-1.49c0-1.17-.02-1.82-.07-1.94-.05-.12-.19-.18-.42-.18h-.36v-.28c.49.02.97.03,1.44.03.39,0,.75-.01,1.08-.03v.28h-.34c-.21,0-.34.03-.39.07-.05.05-.08.18-.09.38-.01.31-.02.87-.02,1.67v1.52c0,1.14.03,1.77.08,1.88.05.12.21.17.48.17h.29v.28c-.36-.02-.75-.03-1.18-.03-.5,0-.94.01-1.34.03v-.28h0ZM188.76,22.37v3.04c0,.69.01,1.17.04,1.45.02.21.06.33.1.38.05.05.19.08.42.1l.28.02v.28c-.32-.02-.61-.03-.87-.03-.18,0-.59.01-1.23.03v-.28h.32c.19,0,.31-.03.37-.08.06-.05.09-.16.11-.31.03-.32.05-.76.05-1.31v-2.18c0-.41,0-.82-.01-1.22,0-.17-.03-.29-.07-.35-.04-.06-.1-.12-.17-.17-.08-.05-.18-.07-.32-.07h-.27v-.28c.37.02.66.03.85.03.21,0,.44-.01.69-.03.29.35.56.7.82,1.03.26.34.52.67.8,1.01l1.5,1.85c.54.66.93,1.12,1.17,1.38v-2.82c0-1.18-.02-1.83-.06-1.93-.04-.11-.21-.18-.51-.21l-.33-.03v-.28c.47.02.84.03,1.1.03.27,0,.62-.01,1.05-.03v.28h-.34c-.27,0-.43.09-.47.27-.03.12-.04.76-.04,1.92v1.98c0,.53.02,1.17.07,1.91-.4-.06-.63-.11-.69-.14-.06-.03-.13-.07-.18-.14-.33-.36-.67-.76-1.02-1.2l-3.16-3.9h0ZM202.01,22.96l-.04-.78c-.26-.17-.53-.3-.82-.39-.29-.09-.58-.13-.89-.13-.79,0-1.42.24-1.9.72-.48.48-.71,1.12-.71,1.93,0,.56.12,1.07.36,1.51.24.44.58.79,1.03,1.05.45.26.91.39,1.41.39.39,0,.78-.04,1.16-.14.29-.07.58-.21.87-.42l.09.09c-.06.13-.12.27-.17.41-.34.17-.69.3-1.04.39-.35.09-.7.13-1.05.13-.72,0-1.35-.14-1.9-.42-.55-.28-.97-.66-1.26-1.15-.29-.49-.44-1.05-.44-1.66s.15-1.17.44-1.66c.29-.49.71-.87,1.25-1.13.54-.27,1.21-.4,1.99-.4.41,0,.9.07,1.45.2.28.06.5.11.67.14-.13.31-.21.76-.23,1.33h-.29ZM154.52,21.29v.38s-.08,0-.12,0c-.47,0-.87.1-1.21.29-.34.2-.61.48-.8.86-.19.38-.29.82-.29,1.32,0,.66.11,1.24.34,1.73.23.49.53.86.91,1.1.34.22.73.34,1.17.36v.38c-.06,0-.12,0-.18,0-.64,0-1.18-.13-1.64-.39-.46-.26-.82-.63-1.09-1.13-.27-.5-.4-1.06-.4-1.7,0-.96.31-1.74.93-2.33.6-.57,1.39-.86,2.38-.88h0ZM69.18,27.71v-.38s.09,0,.14,0c.45,0,.85-.1,1.19-.31.34-.21.61-.52.8-.93.19-.41.29-.92.29-1.51s-.11-1.15-.32-1.59c-.22-.44-.51-.77-.89-.99-.35-.21-.75-.32-1.21-.33v-.38h.1c1.01,0,1.81.27,2.38.82.58.55.86,1.27.86,2.18,0,.98-.33,1.79-1,2.45-.63.62-1.41.94-2.35.98h0ZM80.6,25.55c-.04.25-.07.5-.07.75,0,.27.02.57.07.91-.39.15-.83.27-1.32.37-.49.09-.96.14-1.41.14-.69,0-1.3-.14-1.82-.41-.52-.27-.93-.65-1.21-1.13-.28-.48-.42-1.03-.42-1.64s.15-1.2.45-1.69c.3-.49.72-.88,1.26-1.15.54-.27,1.22-.41,2.05-.41.34,0,.65.02.93.07.28.04.66.13,1.11.26l.37.1c-.08.31-.14.74-.19,1.3h-.27v-.29c0-.29-.02-.46-.07-.51-.09-.09-.32-.21-.7-.35-.38-.14-.81-.21-1.3-.21-.86,0-1.52.23-1.98.69-.5.5-.75,1.17-.75,2s.22,1.47.67,2.01c.53.64,1.25.97,2.16.97.48,0,.99-.1,1.54-.31.02-.25.03-.51.03-.79,0-.36,0-.57-.02-.62-.01-.05-.03-.09-.06-.1-.03-.02-.18-.04-.46-.06l-.52-.04v-.28c.67.03,1.17.04,1.49.04.28,0,.52-.02.72-.04v.22l-.31.2h0ZM86.23,24.46c.29.41.64.89,1.07,1.44l.84,1.1c.15.19.25.29.3.32.05.03.1.04.15.04h.11v.28c-.24-.02-.46-.03-.64-.03-.17,0-.34.01-.53.03l-1.56-2.1c-.29-.39-.6-.76-.93-1.13l.04-.15c.17.01.3.02.38.02.49,0,.87-.13,1.15-.38.28-.25.41-.59.41-1.01,0-.38-.12-.67-.35-.89-.23-.21-.57-.32-1.02-.32-.31,0-.62.06-.93.17-.03.47-.05.96-.05,1.49v2.12c0,1.03.03,1.61.07,1.72.05.11.21.17.48.17h.34v.28c-.49-.02-.89-.03-1.21-.03-.25,0-.71.01-1.37.03v-.28h.33c.25,0,.4-.06.45-.17.05-.11.07-.69.07-1.73v-2.11c0-.91-.03-1.42-.08-1.52-.05-.11-.23-.16-.53-.16h-.24v-.28c.54.02.96.03,1.25.03.19,0,.47,0,.84-.02.42-.01.72-.02.91-.02.51,0,.89.05,1.15.16.26.11.46.26.6.46.14.2.21.44.21.72,0,.41-.15.78-.45,1.1-.3.32-.73.53-1.29.65h0ZM92.34,24.64v1.7c0,.39,0,.67.02.85.43.03.89.05,1.38.05.33,0,.6-.02.83-.05.14-.02.3-.06.46-.11.07-.26.15-.58.23-.97h.29c-.08.64-.12,1.07-.12,1.28v.2c-.33.03-.66.05-.98.05h-.69c-.76-.03-1.32-.04-1.68-.04s-.8.01-1.37.03v-.28h.14c.25,0,.42-.03.48-.07.07-.05.11-.17.13-.35.02-.18.03-.59.03-1.22v-2.41c0-.4,0-.72-.03-.97-.02-.25-.04-.4-.06-.45-.02-.05-.05-.09-.09-.11-.04-.03-.17-.05-.38-.07l-.34-.04v-.27h.94c.26.02.46.03.59.03l1.69-.02h.8c.27,0,.55,0,.83.03-.11.35-.17.79-.18,1.35h-.3c0-.32-.01-.59-.05-.8-.35-.13-.77-.19-1.27-.19-.4,0-.82.02-1.26.05,0,.28,0,.55,0,.83v.68s0,.89,0,.89c.29.02.55.03.77.03.7,0,1.09-.02,1.18-.07.09-.05.14-.2.14-.45v-.28h.3c-.02.44-.03.79-.03,1.06,0,.28.01.61.03.98h-.3v-.25c0-.28-.06-.45-.17-.52-.11-.06-.5-.09-1.16-.09-.25,0-.5.01-.77.03h0ZM101.64,21.67c-.08.3-.13.71-.13,1.21h-.3v-.35c0-.23-.03-.38-.09-.47-.06-.08-.22-.17-.48-.26-.26-.09-.53-.14-.82-.14-.47,0-.84.12-1.11.36-.27.24-.4.54-.4.91,0,.23.05.44.16.6.11.17.26.29.44.37.19.07.58.14,1.18.19.6.06,1.01.14,1.22.23.21.1.38.25.51.47.13.21.19.47.19.76,0,.59-.25,1.1-.74,1.52-.49.43-1.15.64-1.97.64-.28,0-.57-.03-.85-.09-.29-.06-.57-.14-.86-.25.05-.35.08-.8.08-1.35h.3v.22c0,.28.02.46.04.53.03.07.1.14.21.22.16.11.35.2.58.26.22.06.46.09.72.09.56,0,.98-.13,1.28-.39.3-.26.45-.59.45-.99,0-.23-.05-.43-.15-.6-.1-.16-.25-.28-.43-.36-.18-.08-.53-.14-1.02-.18-.66-.05-1.11-.13-1.35-.24-.24-.1-.42-.27-.56-.5-.14-.23-.2-.51-.2-.85,0-.57.21-1.04.62-1.4.41-.36.98-.54,1.71-.54.29,0,.59.03.88.09.29.06.59.16.89.29h0ZM107.94,21.67c-.08.3-.13.71-.13,1.21h-.3v-.35c0-.23-.03-.38-.09-.47-.06-.08-.22-.17-.48-.26-.26-.09-.53-.14-.82-.14-.47,0-.84.12-1.11.36-.27.24-.4.54-.4.91,0,.23.05.44.17.6.11.17.26.29.44.37.19.07.58.14,1.18.19.6.06,1.01.14,1.22.23.21.1.38.25.51.47.13.21.19.47.19.76,0,.59-.25,1.1-.74,1.52-.49.43-1.15.64-1.97.64-.28,0-.57-.03-.85-.09-.29-.06-.57-.14-.86-.25.05-.35.08-.8.08-1.35h.3v.22c0,.28.01.46.04.53.03.07.1.14.21.22.16.11.35.2.58.26.22.06.46.09.72.09.56,0,.98-.13,1.28-.39.3-.26.45-.59.45-.99,0-.23-.05-.43-.15-.6-.1-.16-.25-.28-.43-.36-.18-.08-.53-.14-1.02-.18-.66-.05-1.11-.13-1.35-.24-.24-.1-.42-.27-.56-.5-.14-.23-.2-.51-.2-.85,0-.57.21-1.04.62-1.4.41-.36.98-.54,1.71-.54.29,0,.59.03.88.09.29.06.59.16.89.29h0ZM110.28,27.35h.28c.27,0,.44-.07.49-.2.05-.13.08-.76.08-1.89v-1.49c0-1.17-.02-1.82-.07-1.94-.05-.12-.19-.18-.42-.18h-.36v-.28c.49.02.97.03,1.44.03.39,0,.75-.01,1.08-.03v.28h-.34c-.21,0-.34.03-.39.07-.05.05-.08.18-.09.38-.02.31-.02.87-.02,1.67v1.52c0,1.14.03,1.77.08,1.88.05.12.21.17.48.17h.29v.28c-.36-.02-.75-.03-1.18-.03-.5,0-.94.01-1.34.03v-.28h0ZM117.66,27.7c-.13-.39-.26-.76-.4-1.1l-1.57-3.93c-.23-.57-.36-.88-.4-.93-.04-.05-.16-.08-.38-.08h-.18v-.28c.46.02.85.03,1.17.03.34,0,.75-.01,1.22-.03v.31h-.43c-.15,0-.25.02-.29.04-.04.03-.07.07-.07.13,0,.04,0,.08.02.13l.57,1.51,1.19,3.03,1.16-2.89c.39-.98.58-1.56.58-1.72,0-.13-.08-.21-.24-.21h-.18s-.38-.05-.38-.05v-.28c.39.02.71.03.96.03s.59-.01.99-.03v.28h-.18c-.14,0-.24.03-.31.1-.06.07-.18.3-.34.7l-1.48,3.62c-.28.68-.48,1.22-.59,1.63h-.45ZM124.69,24.64v1.7c0,.39,0,.67.02.85.43.03.89.05,1.37.05.33,0,.6-.02.83-.05.14-.02.29-.06.46-.11.07-.26.15-.58.23-.97h.29c-.08.64-.12,1.07-.12,1.28v.2c-.33.03-.66.05-.98.05h-.69c-.76-.03-1.32-.04-1.68-.04s-.8.01-1.37.03v-.28h.14c.25,0,.42-.03.48-.07.07-.05.11-.17.13-.35.02-.18.03-.59.03-1.22v-2.41c0-.4,0-.72-.03-.97-.02-.25-.04-.4-.06-.45-.02-.05-.05-.09-.09-.11-.04-.03-.17-.05-.38-.07l-.34-.04v-.27h.94c.26.02.46.03.59.03l1.69-.02h.8c.27,0,.55,0,.83.03-.11.35-.17.79-.18,1.35h-.3c0-.32-.02-.59-.05-.8-.34-.13-.77-.19-1.27-.19-.4,0-.82.02-1.26.05,0,.28,0,.55,0,.83v.68s0,.89,0,.89c.29.02.55.03.77.03.7,0,1.09-.02,1.18-.07.09-.05.14-.2.14-.45v-.28h.3c-.02.44-.03.79-.03,1.06,0,.28.01.61.03.98h-.3v-.25c0-.28-.06-.45-.17-.52-.11-.06-.5-.09-1.16-.09-.25,0-.5.01-.77.03h0ZM141.26,25.55c-.04.25-.07.5-.07.75,0,.27.02.57.07.91-.39.15-.83.27-1.32.37-.49.09-.96.14-1.41.14-.69,0-1.3-.14-1.82-.41-.52-.27-.92-.65-1.2-1.13-.28-.48-.42-1.03-.42-1.64s.15-1.2.45-1.69c.3-.49.72-.88,1.26-1.15.54-.27,1.22-.41,2.05-.41.34,0,.65.02.93.07.28.04.66.13,1.11.26l.37.1c-.08.31-.14.74-.19,1.3h-.27v-.29c0-.29-.02-.46-.07-.51-.09-.09-.32-.21-.7-.35-.38-.14-.81-.21-1.3-.21-.86,0-1.52.23-1.98.69-.5.5-.75,1.17-.75,2s.22,1.47.67,2.01c.53.64,1.25.97,2.16.97.48,0,.99-.1,1.54-.31.02-.25.03-.51.03-.79,0-.36,0-.57-.02-.62-.01-.05-.03-.09-.06-.1-.03-.02-.18-.04-.46-.06l-.52-.04v-.28c.67.03,1.17.04,1.49.04.28,0,.52-.02.72-.04v.22l-.31.2h0ZM146.88,24.46c.29.41.64.89,1.07,1.44l.84,1.1c.15.19.25.29.3.32.05.03.1.04.15.04h.11v.28c-.24-.02-.46-.03-.64-.03-.17,0-.34.01-.53.03l-1.56-2.1c-.29-.39-.6-.76-.93-1.13l.05-.15c.17.01.29.02.38.02.49,0,.87-.13,1.15-.38.28-.25.42-.59.42-1.01,0-.38-.12-.67-.35-.89-.23-.21-.57-.32-1.02-.32-.31,0-.62.06-.93.17-.03.47-.05.96-.05,1.49v2.12c0,1.03.03,1.61.08,1.72.05.11.21.17.48.17h.34v.28c-.49-.02-.89-.03-1.21-.03-.25,0-.71.01-1.37.03v-.28h.33c.25,0,.4-.06.45-.17.05-.11.07-.69.07-1.73v-2.11c0-.91-.03-1.42-.08-1.52-.05-.11-.23-.16-.53-.16h-.24v-.28c.54.02.96.03,1.25.03.19,0,.47,0,.84-.02.42-.01.72-.02.91-.02.51,0,.89.05,1.15.16.26.11.46.26.6.46.14.2.21.44.21.72,0,.41-.15.78-.45,1.1-.3.32-.73.53-1.29.65ZM53.02,21.85c-.02.42-.03.87-.03,1.35v2.51c0,.88.03,1.38.08,1.48.05.11.22.16.52.16h.3v.28c-.52-.02-.93-.03-1.23-.03-.26,0-.73.01-1.4.03v-.28h.4c.18,0,.3-.02.36-.07.05-.05.09-.14.1-.28.02-.14.03-.57.05-1.28v-3.26c-.02-.38-.06-.61-.13-.69-.08-.09-.26-.13-.55-.13h-.22v-.28c.37.01.83.02,1.39.02.33,0,.7,0,1.1-.03.27-.01.47-.02.61-.02.71,0,1.23.13,1.55.39.32.26.48.61.48,1.05,0,.32-.09.63-.28.92-.18.29-.45.53-.78.71-.34.18-.7.27-1.08.27-.18,0-.4-.03-.66-.08l-.09-.33c.26.07.47.1.65.1.4,0,.72-.12.96-.37.24-.24.36-.58.36-1s-.13-.73-.38-.96c-.25-.23-.63-.35-1.13-.35-.29,0-.6.06-.93.16h0ZM69.18,21.29v.38s-.08,0-.12,0c-.47,0-.87.1-1.21.29-.34.2-.61.48-.8.86-.19.38-.29.82-.29,1.32,0,.66.11,1.24.34,1.73.23.49.53.86.91,1.1.34.22.73.34,1.17.36v.38c-.06,0-.12,0-.18,0-.64,0-1.18-.13-1.64-.39-.46-.26-.82-.63-1.09-1.13-.27-.5-.4-1.06-.4-1.7,0-.96.31-1.74.93-2.33.6-.57,1.4-.86,2.38-.88h0ZM61.55,24.46c.29.41.64.89,1.07,1.44l.84,1.1c.15.19.25.29.3.32.05.03.1.04.15.04h.11v.28c-.24-.02-.46-.03-.64-.03-.17,0-.34.01-.53.03l-1.56-2.1c-.29-.39-.6-.76-.93-1.13l.04-.15c.17.01.3.02.38.02.49,0,.87-.13,1.15-.38.28-.25.42-.59.42-1.01,0-.38-.12-.67-.35-.89-.23-.21-.57-.32-1.02-.32-.31,0-.62.06-.93.17-.03.47-.05.96-.05,1.49v2.12c0,1.03.03,1.61.08,1.72.05.11.21.17.48.17h.34v.28c-.49-.02-.89-.03-1.21-.03-.25,0-.71.01-1.37.03v-.28h.33c.25,0,.4-.06.45-.17.05-.11.07-.69.07-1.73v-2.11c0-.91-.03-1.42-.08-1.52-.05-.11-.23-.16-.53-.16h-.24v-.28c.54.02.96.03,1.25.03.19,0,.47,0,.84-.02.42-.01.72-.02.91-.02.51,0,.89.05,1.15.16.26.11.46.26.6.46.14.2.21.44.21.72,0,.41-.15.78-.45,1.1-.3.32-.73.53-1.29.65Z"/>
      <path class="cls-2" d="M205.43,26.75c-.06,0-.12.01-.18.04-.06.03-.11.07-.15.13-.04.06-.06.13-.06.23,0,.06.01.13.04.19.03.06.07.11.13.16.06.04.13.06.22.07.08,0,.15-.02.21-.06.06-.04.12-.09.15-.15.04-.06.06-.13.06-.2,0-.12-.04-.21-.11-.28-.07-.07-.17-.11-.31-.11Z"/>
    </g>
    <path class="cls-1" d="M111.44,18.88c.44,0,.8.36.8.8s-.36.8-.8.8-.8-.36-.8-.8.36-.8.8-.8Z"/>
  </g>
</svg>